<svg id="Capa_1" data-name="Capa 1" xmlns="http://www.w3.org/2000/svg" viewBox="0 0 94.34 88.84"><defs><style>.cls-1{fill:#6da5b9;fill-rule:evenodd;}.cls-2{fill:#fff;}</style></defs><path class="cls-1" d="M57.77,4.55l-.88.06.09,0-.88.11-1.05.16h0a23.41,23.41,0,0,0-3.88,1c-.29.1-.57.21-.85.33l-.11,0-.08,0c-.55.23-1.09.47-1.63.72l0-.1c-.45.21-.73.35-1,.44a2.81,2.81,0,0,1-.42.15c-.17,0-.16-.05-.33,0l-.47.24c-.18.08-.36.18-.55.28l-.63.35-.71.39.81-.38c.22-.1.33-.12.17,0,.6-.32.52-.32.44-.32s-.09,0,0,0a2.57,2.57,0,0,1,.49-.28c.37,0,.69-.1.16.32l-1,.57c-.32.19-.64.38-1,.58-.52.29-1,.57-1.52.82-.08,0,0-.12,0-.14s-.14,0-.67.31c-.15,0-.09,0,0-.13s.33-.2.48-.31l-.2.11-.19.09-.39.2-.37.18-.37.16c-.11,0,.18-.18-.22,0,.18,0-.31.21-.29.27.29-.1,1.05-.49,1.08-.46.2,0-.66.47-.63.56l-.7.29-.34.12-.33.11-.32.09a1.77,1.77,0,0,1-.31.08l-.3.07-.15,0-.15,0-.4.14-.31,0a2.18,2.18,0,0,1-.39.05v-.13a8.26,8.26,0,0,1-1.4,0c0-.06-.08-.12.37-.11l-.43,0h-.31l-.18,0c-.13,0,.23.15-.21.11s-.23-.11-.16-.16.06,0,0-.08a1.37,1.37,0,0,0-.41-.11c-.64-.05-.25.15-1.28,0a7.34,7.34,0,0,0-2-.64c-.05,0,.29.13.51.21s.35.13-.09.06a7.5,7.5,0,0,0-.93-.26c-.16,0,.28.22-.28.1-.87-.33.62,0,.32-.23-.89-.21-1.43-.37-2-.52s-1.11-.32-2.13-.55a.84.84,0,0,0,.3.11l.66.18,1.16.3,0,.09c-.49-.16-1.94-.51-1.59-.35a5.27,5.27,0,0,0,.81.2c.2,0,.38.06.77.16.11.07,0,.06-.32,0L28.12,10l-.72-.18c-.4-.12-.59-.19-.82-.28s-.23-.09-.42-.14l-.74-.18-.6-.06c-.17,0-.39-.07-.94-.18.72.19,0,.06.29.15a14.09,14.09,0,0,0-1.82-.23l-1,0A11.31,11.31,0,0,0,19,8.72,21.44,21.44,0,0,0,15.88,9c.33,0,.13,0,.09.08s.06,0,1-.09c.62-.07.31,0,0,0s-.62,0,0,0,1.16-.1,1.73-.12c.16,0-1.05.09-.68.13,1,0,2.18,0,2.67,0,.14,0,0,.05-.22.06s-.55,0-.77,0A19.5,19.5,0,0,0,17,9.05a23.36,23.36,0,0,0-2.57.47,16,16,0,0,0-3.56,1.31c0-.05-.08,0-.33.11a5.31,5.31,0,0,0-.48.24c-.19.11-.41.23-.65.4l-.4.31-.46.38-.58.5c-.12.1-.24.22-.37.34s-.27.25-.42.41c.23-.24,1-.82.34-.26L6.8,14c-.2.23-.44.48-.79.9.32-.42.52-.71.47-.72s-.1,0-.25.2-.17.17-.28.3a5.78,5.78,0,0,0-.36.46c.06,0-.41.76.14.1l-.26.35a2.92,2.92,0,0,0-.24.37l-.45.74c-.14.25-.26.51-.38.76l-.19.39-.15.39a5.81,5.81,0,0,0-.29.6c-.1.25-.19.5-.23.57l-.13.48c0,.16-.07.32-.1.48-.06.34-.14.69-.18,1.09L3,22.06c0,.23,0,.48,0,.76l0,.42v.46a9.42,9.42,0,0,0,0,1c0,.1,0,0,0-.32s0-.69,0-1.12,0-.88.08-1.23a6.25,6.25,0,0,1,.11-.65h0l-.09.65c0,.21,0,.43-.05.64s0,.41,0,.6v.55l0,.48a3.71,3.71,0,0,0,0,.38,3.17,3.17,0,0,0,.06.41c0,.11,0,.23,0,.37l.06.44c0,.32.09.66.16,1l.18.81c.06.21.08.33.06.33A12.32,12.32,0,0,0,5,31c.24.35.45.67.67.93l.3.39.3.34.24.26c.11.2.21.39.31.55a5,5,0,0,0,.47.73,37.89,37.89,0,0,0,2.64,3q.64.68,1.35,1.29a37.94,37.94,0,0,0,4.23,3.1l-.16.44a.56.56,0,0,0,.11-.13c0-.07.09-.16.13-.25h0l.05,0c-.06.14-.13.29-.17.4.15-.23.14-.15.08,0s-.21.51-.32.75c.09,0,.5-.59.31-.08-.09-.06-.26.11-.65.69a2.79,2.79,0,0,0-.11.51.43.43,0,0,0,0,.27s.08.06.15,0c-.65.89-1.25,1.82-1.84,2.73a12.94,12.94,0,0,0-1,1.79A23.48,23.48,0,0,0,10,59a16.4,16.4,0,0,0,.27,2.73c-.19-.31-.39-.39-.59.15a6,6,0,0,0-.29,1.48,14.1,14.1,0,0,0,0,3c0,.39,0,.41-.11,0a4.77,4.77,0,0,0,.06.62,3.85,3.85,0,0,1,0,.5c0,.09-.11-.37-.16-.55a10.92,10.92,0,0,0,.2,1.16,7.91,7.91,0,0,1,.18.82c-.08-.22-.15-.46-.2-.63s-.08-.27-.08-.2A10.79,10.79,0,0,0,10,69.92a8.45,8.45,0,0,0,1.15,2c.11.15.2.28.29.39l.25.31.2.25L12,73c.19.25.31.4.47.59-.05,0,.19.13.45.3s.55.37.58.41a15,15,0,0,0-1.58-.86c-.16,0,0,.22.25.58a8.16,8.16,0,0,0,1.19,1.14c.43.36.84.64,1,.81.65.31,1,.47,1.38.63s.63.29,1.06.45c.13.14.09.21-.35.13a9,9,0,0,1-1-.28,15.22,15.22,0,0,1-1.86-.81c-.06,0,0,.08-.32-.11.11,0,0-.06-.25-.18l-.34-.21-.28-.19-.31-.18-.24-.16-.27-.2c-.18-.13-.37-.29-.53-.42l-.41-.36c.14.13.28.27.43.39l.43.36a9.24,9.24,0,0,0,.86.62,14.54,14.54,0,0,0,1.71,1,17.93,17.93,0,0,0,1.83.76c.32.12.65.22,1,.34l1.11.33c.14.07-.34,0,.24.16a4.35,4.35,0,0,1,1.33.42l-.81-.22L18,78l-.05.18c1.06.31,1.25.4,1.3.49s0,.13.52.3l.74.19.63.13.54.11.51.08,1.06.16c.4,0,.83.12,1.4.17-.06,0,.1,0,.34,0l.41,0h.45l1,.14c.35,0,.5.07-.12.11a36.47,36.47,0,0,1-4.35-.47,37.86,37.86,0,0,1-4.55-1.07,36.26,36.26,0,0,0,5.34,1.26c.51.07,1,.15,1.52.19l.75.06.72,0c.47,0,.92,0,1.33,0,.21,0,.4,0,.59,0l.53,0v.14c.81,0,1.14-.1,1,0l.71-.08.36,0L31,80l.73-.14.19,0,.18,0,.36-.1.72-.19.71-.24c.23-.09.47-.16.69-.25l.67-.29.64-.29.59-.32.57-.32.52-.31c.63-.41,1.1-.74,1.44-1,0,0,.42-.35.78-.62l.14-.1.13-.08a1.38,1.38,0,0,1,.23-.16l.18-.11.12-.07-.28.21a.51.51,0,0,0-.13.13c0,.06,0,.07,0,.09a7.56,7.56,0,0,1,.83-.51c0-.07-.2,0,0-.17l.14-.07.14,0,.15,0,.15,0a3.09,3.09,0,0,1,.62-.1c-.05,0-.09.06-.06.09l.12,0h.31c.09,0,.11,0,.09,0l-.14,0c-.12,0-.27,0-.2,0,.68,0,0-.06.26-.09l.44,0,.29.06.22.06c.06,0,.13,0,.21.07.3.09.34.08.39.07s.1,0,.48.12a6.43,6.43,0,0,1,.74.32,7.83,7.83,0,0,0,.71.37,9.93,9.93,0,0,1,1.24.58c.52.26,1.12.6,1.69.94a9.88,9.88,0,0,0,2.2,1.15c.25.17.53.33.88.53l1.34.73a2.61,2.61,0,0,0,.64.42l.63.33.77.37c1.1.5,2.44,1,3.4,1.31.27,0-1-.39-.25-.22l.46.14.34.09.48.15.42.13.66.15c.23,0-.11-.06-.45-.13s-.66-.18-.43-.15.55.14.83.2.56.13.83.17a10.28,10.28,0,0,0,1.07.15c1,.15,1.4.2.62.17.35,0,.63.06.91.06h.82c.14,0,.29,0,.45,0h.54l.66,0,.81-.06c.18-.05-.41-.06.31-.13a18.13,18.13,0,0,0,4.84-1.23c.07,0-.15.25.36,0-.2,0-.28,0,0-.12s.8-.34,1.82-.9c.26-.07-.14.23-.52.47l.77-.44.42-.22.45-.34.63-.49a6.67,6.67,0,0,0,1.26-1l.37-.34.28-.27c.16-.14.24-.19.18-.07.39-.4.9-1,1.34-1.51.21-.27.41-.54.57-.76s.28-.41.35-.53a9.29,9.29,0,0,1-.86,1.12c-.09.11-.2.21-.32.35s-.26.31-.48.54c.1-.17-.35.23.13-.33l.43-.52.36-.47c.23-.29.4-.55.56-.76a9.67,9.67,0,0,1,.61-.81,11.86,11.86,0,0,0,.72-1.42c.12-.15-.08.4.25-.23,0-.13,0-.24-.07-.13a3.09,3.09,0,0,0-.24.35c-.12.18-.26.45-.47.8.19-.38.64-1.26.94-2a4.38,4.38,0,0,1,.31-.56c.06-.11.11-.16.14-.17s.09.07.16,0a5.55,5.55,0,0,0,.35-1.06c0-.16,0-.18,0-.21s0-.07,0-.26.14-.55.32-1.21l.15,0a13.68,13.68,0,0,0,.62-3.66l-.1.75c0,.24-.07.42-.08.47s0-.21,0-.36,0-.34.06-.56a5.38,5.38,0,0,1,.18-1c0-.07.07,0,.12.11.11-1.22-.07-.12,0-.94,0-.33.09-.9.1-1.54,0-.32,0-.65,0-1s0-.64-.07-.92,0,.2,0,.63,0,.87,0,.63l0-.46,0-.39c0-.25,0-.47-.07-.65,0-.37-.08-.65-.13-.92l-.16-.89c-.06-.34-.13-.75-.21-1.3A5.89,5.89,0,0,0,84.13,55,8,8,0,0,1,84,53.7a4,4,0,0,1-.32-1.1l0-.4c0-.13,0-.24,0-.36v-1l0-.38c0-.13,0-.26,0-.41s0-.3.07-.46v-.25a1.21,1.21,0,0,1,.07-.37l.09-.13s.06.06.09,0,.12-.15.27-.46a.29.29,0,0,1,0-.09c.8-1.06,1.6-2.13,2.39-3.2.63-.85,1.28-1.7,1.87-2.57l.14-.2h0c.27-.41.53-.82.77-1.25a11.89,11.89,0,0,0,.72-1.91,15,15,0,0,0,.67-1.89l0-.16.17-.48c0-.17.09-.33.14-.49a4.21,4.21,0,0,0,.12-.48l.1-.43c0-.14,0-.26.06-.38a4.43,4.43,0,0,0,0-.47l.09-.59a4.72,4.72,0,0,0,.08-.56q0-.28.06-.66c0-.13,0-.27,0-.42s0-.32,0-.5a2.4,2.4,0,0,0-.14-.6,1.54,1.54,0,0,1-.07-.24l-.06-.26a3,3,0,0,0-.09-.4,5.54,5.54,0,0,1-.14-.85,3.16,3.16,0,0,0-.14-.64c0-.06-.08-.22-.17-.43l-.3-.75c-.12-.28-.27-.56-.4-.83s-.14-.27-.21-.39l-.2-.32c0,.13-.08,0-.25-.22s-.45-.58-.73-.92a5.48,5.48,0,0,0-.35-.5,9,9,0,0,0-.65-.75,12.79,12.79,0,0,0-1-.9c-.19-.16-.4-.31-.62-.48L85.93,22l-.37-.23.07-.12a14.49,14.49,0,0,1,1.27.9,14,14,0,0,1,1.13,1,4.36,4.36,0,0,0-.52-.56,10,10,0,0,0-.93-.77L86,21.84l-.55-.33c-.34-.22-.67-.36-.89-.48s.38.33-.42-.05a11.73,11.73,0,0,0-1.32-.53,4.52,4.52,0,0,0-.8-.42c-.24-.1-.56-.21-1-.35s-.77-.28-1.16-.4l.74.16c.6.15,1.37.34,2.31.67.07,0,0,0,0,.05s0,0,.13.07l.55.21c.22,0-.38-.29.39,0,.34.14.72.34,1.07.52l-.06.12A17.16,17.16,0,0,1,87,22.42a12.8,12.8,0,0,1,1.9,1.94c0-.1,0-.09.11.06l.26.31.36.51c.16.17-.17-.46.33.25.24.49.22.56.07.4a3.52,3.52,0,0,1-.31-.36c-.13-.15-.28-.33-.42-.52.48.66.67,1,.86,1.26a3.89,3.89,0,0,1,.25.4c.09.15.19.33.31.57-.28-.68-.08-.41.09-.21s.3.35-.16-.61a5.92,5.92,0,0,0-.54-.85L90,25.42l-.16-.21-.51-.7-.57-.75-.5-.57L88,22.9l-.3-.29a8.91,8.91,0,0,0-.79-.7c-.14-.06,0,.07,0,.07s-.07,0-.22-.14l-.3-.2c-.13-.09-.3-.19-.51-.31a10.14,10.14,0,0,0-1.4-.82c-.48-.24-1-.44-1.36-.6-.1,0,0,0,0,.07s0,0-.37-.09a3.58,3.58,0,0,1-.6-.29l-1.43-.41-.8-.25c-.41-.14-.69-.26-1.12-.41.22.12,0,.09-.25,0s-.67-.18-.89-.25c.32.13.74.26,1.1.37a2,2,0,0,1,.65.25l1.18.28c.43.11.84.22.95.27a4.39,4.39,0,0,0-.5-.1l-.41-.07-1-.19c-.37-.16-.66-.3-1.08-.47a8,8,0,0,1-1.27-.35c-.35-.14-.51-.24-.56-.25a.36.36,0,0,1,.1-.15s0,0,0,0,0,0,0,0l.09-.06s0,0,0,0,0,0,0,0h0v0c-.11,0-.22.05-.33-.34l.11,0a1.41,1.41,0,0,0,0-.2V15.78a1,1,0,0,1,0-.31l-.08-.54,0-.35-.06-.41c0-.26-.11-.59-.17-.87a1.55,1.55,0,0,0,0-.21l-.06-.22c0-.15-.08-.28-.12-.4-.08-.43,0-.14.12.18s.2.63.16.22c0-.18-.08-.37-.13-.56s0-.19-.08-.29l-.1-.31a8.93,8.93,0,0,0-.51-1.23l-.07-.16-.09-.15-.19-.31a5.7,5.7,0,0,0-.39-.61l-.44-.57c-.15-.18-.33-.35-.49-.52a4.8,4.8,0,0,1,.37.44l.22.33.26.41c.11.17.24.4.42.72l-.31-.45c-.15-.22-.38-.48-.62-.77a5.36,5.36,0,0,0-.4-.43c-.15-.14-.29-.3-.45-.43a11.11,11.11,0,0,0-.9-.73c.31.2.56.4.75.54s.32.25.4.33.18.12.07,0a4.86,4.86,0,0,0-.61-.61l-.22-.19-.23-.18-.49-.35c.6.25.08-.22-.32-.47l.48.27.43.28.39.28.34.28.3.26a2.77,2.77,0,0,1,.24.25c.15.15.28.29.38.41a2.93,2.93,0,0,1,.36.51c.06.1,0,.12,0,.1a9.93,9.93,0,0,1,.86,1.33c.12.25.24.51.35.76l.08.19a1.34,1.34,0,0,1,.07.18l.11.34a6.44,6.44,0,0,1,.26,1c0,.21,0,.27,0,.12a2.38,2.38,0,0,1,0,.26l.05.26.08.53,0,.48,0,.24v.2l0,.4,0,.33c0,.2,0,.37,0,.47a2.44,2.44,0,0,1,0,.28v.12s0,.05,0,.07,0,.05,0,0a.89.89,0,0,1,0-.23c0,.63,0,.84,0,1a1.49,1.49,0,0,0,0,.21v.2l.27,0v0l0,0a.14.14,0,0,1,.07.11l.06,0-.11-.16h0l0,0h0a.19.19,0,0,0,0-.08s0-.07,0-.08,0,0,0,0,0,.09-.08-.13c0,0,0,0,0-.06a.38.38,0,0,1,0-.1c0-.07,0-.16,0-.26v-.83c0-.66,0-1.56,0-2l0,.47c0,.16,0,.29,0,.43v.21l0,.2v.37l0,.66v.28c0,.09,0,.18,0,.25s.09,0,.05-.92c0,0,0,0,0-.06a2,2,0,0,1,0-.22L77,14.92l0-.25,0-.29c0-.2,0-.38-.06-.57l-.08-.56,0-.23,0-.21c.08.19.11.08,0-.33a2.86,2.86,0,0,0-.06-.35c0-.15-.09-.32-.15-.5l-.09-.29c0-.1-.07-.2-.13-.32s-.21-.48-.34-.74c.09.2.16.39.23.56s.11.31.14.42.07.32,0,.29a.66.66,0,0,1-.08-.17l-.18-.4c-.09-.18-.19-.41-.33-.68s-.35-.6-.59-1A8.73,8.73,0,0,0,74,7.75a10.18,10.18,0,0,0-2.07-1.53s-.3-.14-.69-.3l-.32-.14-.34-.13c-.24-.09-.49-.18-.73-.25l-.68-.19-.57-.13A2.21,2.21,0,0,0,68.08,5a13.42,13.42,0,0,1,1.4.36l.55.2.46.2c-.34-.12-.5-.16-.44-.12a13.55,13.55,0,0,0-2.35-.54c-.35-.06-.66-.09-1-.12S66.2,5,66,5c0,0,.17,0,.41-.06s.26,0,.42,0h.54a1.28,1.28,0,0,0-.3-.07l-.29,0-.36,0-.83-.06-.89,0-1.51,0a7.36,7.36,0,0,1-.85,0,3.85,3.85,0,0,0-.66,0l-.21,0-.66,0a1,1,0,0,1,.36-.11c.22-.05.37-.09-.24-.12-.3,0-1,.07-1.61.09s-1.25,0-1.39,0S57.68,4.54,57.77,4.55Zm-26,75.06,0-.13.64-.17C32.15,79.42,33.07,79.3,31.8,79.61Zm29.91,2.75.75.1c.5.07,1.08.13,2.05.22a1.34,1.34,0,0,1,.57-.07,9.25,9.25,0,0,0,1.33.11l.53,0,.31,0c.16,0,.25-.07.43-.1.79-.05.65,0,.27,0l-.68.1-.32,0-.22,0h-.92l-1.12,0c-.38,0-.76,0-1.11-.08l-.5,0-.43,0-.91-.15-.89-.2Zm-.88-.1v0l-.59-.14v0Zm-18-72.09c.12-.09.23-.18,0-.12L44,9.45l-.66.47-.61.34C42.62,10.33,42.74,10.26,42.86,10.17Zm-4.14,1.51.33-.08.38-.09.55-.15c.26,0-.81.29-1.24.38Zm-3,.19c.49,0,.45.12,0,0Zm-1.38-.36c.46.08.07.1.19.15a3.84,3.84,0,0,1-.56-.13,1.32,1.32,0,0,0-.26-.12A3.2,3.2,0,0,0,34.29,11.51Zm-8-1.84.21.05.29.07c.14,0,.16.06.07.07l-.58-.15c-.21-.06-.36-.1-.26-.1ZM22,9a10,10,0,0,1,1.59.13c.7.09,1.28.18.93.05a8.3,8.3,0,0,1,1.2.31c-.78-.15-1.23-.21-1.72-.27Zm.63.1.62.08v0l-.63-.08ZM11.88,10.4c.32-.14.68-.26,1-.38s.64-.21.87-.27c.06,0,0,0-.22.09l-.8.27a15,15,0,0,0-1.88.8A3.66,3.66,0,0,1,11.88,10.4Zm15.5-.51,1.06.26c.1.06-.21,0-.53-.08S27.27,9.89,27.38,9.89ZM43,74.66l-.33,0a2,2,0,0,1,.57,0A.6.6,0,0,1,43,74.66Zm-32.59-11A11.54,11.54,0,0,1,10.34,62,17.52,17.52,0,0,0,11,64.23l-.09.35c-.08.33-.15.66-.22.84C10.55,64.68,10.48,64.19,10.43,63.69ZM39,76.21l-.2.15-.28.21c-.4.29-1,.68-1.34.91l-.08-.13c.4-.32.28-.09.34-.09a8,8,0,0,0,.75-.5l.92-.68S39.07,76.12,39,76.21Zm2.28-1.39a.84.84,0,0,0-.14.06l-.06,0-.08,0-.26.14-.18.09c-.07,0-.05,0,0-.06l.12-.08.16-.09.17-.09.17-.07a3,3,0,0,1,.31-.11l0,.06Zm4.82.74v0l.39.19v0Zm3.68,2,.06-.1c.34.24.64.46.6.5Zm1.24.54.19.1C52.34,78.87,51.08,78.17,51,78.11ZM77.54,79a19,19,0,0,1-2.18,1.59l-.08-.12a16.21,16.21,0,0,0,2.17-1.57Zm.37-.58c-.16.15-.32.3-.49.44l0,0,.49-.43Zm7-17.6Zm-.14-.3a4.35,4.35,0,0,1,0,.92c0-.17,0-.33,0-.49a2.36,2.36,0,0,0,0-.28c0-.16,0-.31,0-.46S84.7,60.37,84.72,60.47Zm-.11-.62h0c0-.2,0-.41-.06-.6h0C84.58,59.44,84.59,59.64,84.61,59.85Zm-.1-1.49a3.41,3.41,0,0,1,0,.52c0,.09,0,.11,0,.07a3,3,0,0,1-.06-.59S84.5,58.4,84.51,58.36ZM91.6,31.69a7.78,7.78,0,0,1,.07,1.16c0,.07,0,0,0-.12s0-.32,0-.5A4.27,4.27,0,0,1,91.6,31.69Zm-.16-.37c.1.58,0,.34-.07.39-.05-.29,0-.37,0-.39S91.42,31.35,91.44,31.32Zm-.62-2.92c.11.31.14.47.11.43a.63.63,0,0,1-.1-.21c0-.13-.11-.31-.21-.55S90.76,28.29,90.82,28.4ZM76.68,18.3s0,0,0,0,0-.06,0-.1l.07.08S76.7,18.3,76.68,18.3ZM64.46,4.75l.51,0a2.41,2.41,0,0,1,.32.05c.13,0,.07.06-.25.06a4.17,4.17,0,0,1-.56,0,1.1,1.1,0,0,1-.27,0C64.11,4.78,64.18,4.75,64.46,4.75Zm-2.7-.11c.66,0,.81.05.46.08l-.45,0Z"/><path class="cls-2" d="M30.27,30.67,44.56,46.31a.82.82,0,0,0,1,.13l22-13.78,3.14-2c.89-.55.07-2-.82-1.4l-22,13.78-3.13,2,1,.12L31.42,29.52c-.71-.77-1.86.38-1.15,1.15Z"/><path class="cls-2" d="M39.57,67.43a85.52,85.52,0,0,1,2-10.78c1.52-6.31,3.56-13,7.6-18.21.64-.81-.51-2-1.15-1.15-3.26,4.19-5.25,9.24-6.77,14.29a94.56,94.56,0,0,0-2.91,13.1c-.14.91-.27,1.83-.37,2.75s1.51,1,1.62,0Z"/><path class="cls-2" d="M46.43,34.22a3.38,3.38,0,0,1-.16-.7l0,.22a3.62,3.62,0,0,1,0-.93l0,.22a3.44,3.44,0,0,1,.2-.78.86.86,0,0,0-.08-.63.83.83,0,0,0-1.12-.29,1,1,0,0,0-.37.49,4.23,4.23,0,0,0,0,2.83.86.86,0,0,0,.38.48.8.8,0,0,0,.62.09.82.82,0,0,0,.57-1Z"/><path class="cls-2" d="M46.5,27.05a7.14,7.14,0,0,1-.28-1.28l0,.22a7,7,0,0,1,0-1.52.82.82,0,0,0-1.63,0,8.53,8.53,0,0,0,.36,3,.81.81,0,1,0,1.57-.43Z"/><path class="cls-2" d="M50.73,28.71a6.12,6.12,0,0,1,.7-1.18l-.13.17a5.24,5.24,0,0,1,.59-.65.9.9,0,0,0,.23-.58.79.79,0,0,0-.23-.57.82.82,0,0,0-1.15,0,6.41,6.41,0,0,0-1.42,2,1,1,0,0,0-.08.63.82.82,0,0,0,.38.48.79.79,0,0,0,.62.08.8.8,0,0,0,.49-.37Z"/><path class="cls-2" d="M52.44,23.37a10.3,10.3,0,0,1,1.73-1.7l-.17.12c.21-.16.42-.31.64-.45a.83.83,0,0,0,.37-.49.79.79,0,0,0-.08-.62.82.82,0,0,0-1.11-.29,11,11,0,0,0-2.53,2.28.86.86,0,0,0-.23.57.83.83,0,0,0,.23.58.84.84,0,0,0,.58.24.8.8,0,0,0,.57-.24Z"/><path class="cls-2" d="M57.15,24.23a3.36,3.36,0,0,1,.29-.24l-.17.12a4,4,0,0,1,.69-.4l-.19.09.35-.13a.8.8,0,0,0,.57-1,.85.85,0,0,0-.38-.49.84.84,0,0,0-.62-.08,4.18,4.18,0,0,0-1.69,1,.88.88,0,0,0-.23.58.84.84,0,0,0,.23.57.81.81,0,0,0,1.15,0Z"/><path class="cls-2" d="M56.58,31.62A6.68,6.68,0,0,1,57.73,31l-.2.08A7.14,7.14,0,0,1,59,30.65a.8.8,0,0,0,.57-1,.84.84,0,0,0-1-.57,7.77,7.77,0,0,0-2.78,1.13.85.85,0,0,0-.29,1.12.84.84,0,0,0,1.12.29Z"/><path class="cls-2" d="M52.62,36.28,53,36l-.17.12A12.41,12.41,0,0,1,54.67,35a.81.81,0,0,0,.38-.49.82.82,0,0,0-.57-1,.92.92,0,0,0-.63.08,12.89,12.89,0,0,0-2.38,1.57.84.84,0,0,0-.24.58.82.82,0,0,0,.82.81.89.89,0,0,0,.57-.24Z"/><path class="cls-2" d="M49,34.86a6.38,6.38,0,0,1,.63-1l-.13.16a6.82,6.82,0,0,1,.91-1,.8.8,0,0,0,.24-.57.84.84,0,0,0-.24-.58.83.83,0,0,0-.58-.23.93.93,0,0,0-.57.23A6.81,6.81,0,0,0,47.56,34a.79.79,0,0,0,.29,1.11A.82.82,0,0,0,49,34.86Z"/></svg>